<svg xmlns="http://www.w3.org/2000/svg" xmlns:xlink="http://www.w3.org/1999/xlink" width="59" height="60" viewBox="0 0 59 60">
    <defs>
        <path id="a" d="M0 1.202h58.806V60.41H0z"/>
    </defs>
    <g fill="none" fill-rule="evenodd">
        <g transform="translate(0 -.612)">
            <mask id="b" fill="#fff">
                <use xlink:href="#a"/>
            </mask>
            <path fill="#FFF100" d="M29.404 3.343c-15.041 0-27.277 12.32-27.277 27.463 0 15.144 12.236 27.463 27.277 27.463 15.04 0 27.276-12.32 27.276-27.463 0-15.142-12.237-27.463-27.276-27.463m0 57.067C13.19 60.41 0 47.13 0 30.806 0 14.482 13.191 1.202 29.404 1.202c16.212 0 29.403 13.28 29.403 29.604 0 16.323-13.19 29.604-29.403 29.604" mask="url(#b)"/>
        </g>
        <path fill="#231F20" d="M26.405 21.588a2.027 2.027 0 0 1-.682-1.546c0-.717.254-1.314.763-1.79.507-.474 1.17-.713 1.99-.713.73 0 1.322.202 1.777.604.455.404.682.902.682 1.495 0 .77-.259 1.394-.775 1.87-.518.475-1.186.713-2.005.713-.712 0-1.295-.211-1.75-.633m-9.368 21.754l1.658-3.04c.48.34 1.061.51 1.737.51.57 0 1.02-.17 1.35-.51.328-.341.565-.88.707-1.616l2.887-14.448h4.168l-2.86 14.342c-.729 3.712-2.796 5.568-6.198 5.568-1.39 0-2.54-.268-3.449-.806M34.489 18.75h4.168l-3.953 19.964h-4.17z"/>
    </g>
</svg>
